<svg width="92" height="32" viewBox="0 0 92 32" fill="none" xmlns="http://www.w3.org/2000/svg">
<path d="M24.2041 3.5232V24.1383H17.9184V13.8599L14.8183 24.1383H9.41429L6.31412 13.8599V24.1383H0V3.5232H7.73622L12.1732 15.8981L16.4963 3.5232H24.2041Z" fill="#D8DDEE"/>
<path d="M32.8269 7.51228C33.8698 7.51228 34.7705 7.73552 35.5289 8.18198C36.2874 8.60904 36.8657 9.20109 37.2639 9.95814V7.71611H43.5495V24.1383H37.2639V21.8963C36.8657 22.6533 36.2874 23.2551 35.5289 23.7015C34.7705 24.1286 33.8698 24.3421 32.8269 24.3421C31.5755 24.3421 30.4473 24.0121 29.4423 23.3521C28.4374 22.6727 27.641 21.7022 27.0532 20.4404C26.4844 19.1592 26.1999 17.6548 26.1999 15.9272C26.1999 14.1996 26.4844 12.7049 27.0532 11.4431C27.641 10.162 28.4374 9.19139 29.4423 8.53139C30.4473 7.85199 31.5755 7.51228 32.8269 7.51228ZM34.9316 13.1611C34.249 13.1611 33.6897 13.4037 33.2536 13.889C32.8174 14.3743 32.5994 15.0537 32.5994 15.9272C32.5994 16.8007 32.8174 17.4801 33.2536 17.9654C33.6897 18.4507 34.249 18.6934 34.9316 18.6934C35.6142 18.6934 36.1736 18.4507 36.6097 17.9654C37.0458 17.4801 37.2639 16.8007 37.2639 15.9272C37.2639 15.0537 37.0458 14.3743 36.6097 13.889C36.1736 13.4037 35.6142 13.1611 34.9316 13.1611Z" fill="#D8DDEE"/>
<path d="M45.9298 3.23203C45.9298 2.30027 46.2616 1.53352 46.9253 0.931756C47.5889 0.310585 48.4706 0 49.5704 0C50.6512 0 51.5234 0.310585 52.187 0.931756C52.8507 1.53352 53.1825 2.30027 53.1825 3.23203C53.1825 4.14437 52.8507 4.90143 52.187 5.50319C51.5234 6.10494 50.6512 6.40582 49.5704 6.40582C48.4706 6.40582 47.5889 6.10494 46.9253 5.50319C46.2616 4.90143 45.9298 4.14437 45.9298 3.23203ZM52.699 7.71611V24.1383H46.3849V7.71611H52.699Z" fill="#D8DDEE"/>
<path d="M61.8648 2.59145V24.1383H55.5507V2.59145H61.8648Z" fill="#D8DDEE"/>
<path d="M71.0307 2.59145V24.1383H64.7166V2.59145H71.0307Z" fill="#D8DDEE"/>
<path d="M79.2011 7.71611L82.216 16.0437L85.0317 7.71611H92L81.7324 32H74.8211L78.8598 23.323L72.1759 7.71611H79.2011Z" fill="#D8DDEE"/>
</svg>
