<svg width="76" height="32" viewBox="0 0 76 32" fill="none" xmlns="http://www.w3.org/2000/svg">
<path d="M18.498 25.4253H13.189L5.33947 11.7944V25.4253H0V3.51956H5.33947L13.1737 17.1505V3.51956H18.498V25.4253Z" fill="#D8DDEE"/>
<path d="M29.6029 25.7262C27.0777 25.7262 25.0342 24.984 23.4724 23.4995C21.9106 22.005 21.1297 20.0642 21.1297 17.677V17.2558C21.1297 15.5908 21.439 14.1214 22.0576 12.8475C22.6864 11.5737 23.5991 10.5908 24.7958 9.8987C25.9925 9.19659 27.4123 8.84554 29.0552 8.84554C31.3675 8.84554 33.193 9.55767 34.5316 10.9819C35.8703 12.3962 36.5396 14.3721 36.5396 16.9097V18.8806H26.3475C26.53 19.7934 26.9306 20.5105 27.5492 21.0321C28.1679 21.5537 28.969 21.8144 29.9528 21.8144C31.5754 21.8144 32.8431 21.2528 33.7558 20.1294L36.0985 22.8676C35.4596 23.7402 34.5519 24.4373 33.3755 24.9589C32.2092 25.4704 30.9517 25.7262 29.6029 25.7262ZM29.0248 12.7573C27.5239 12.7573 26.6314 13.7402 26.3475 15.7061H31.5196V15.3149C31.5399 14.5025 31.332 13.8756 30.8959 13.4343C30.4598 12.9829 29.8361 12.7573 29.0248 12.7573Z" fill="#D8DDEE"/>
<path d="M39.7494 25.4253V12.667H37.3611V9.14644H39.7494V7.85256C39.7494 5.99699 40.3021 4.55767 41.4075 3.5346C42.5129 2.51153 44.0646 2 46.0625 2C46.7926 2 47.5938 2.10532 48.466 2.31595L48.4812 6.04714C48.1668 5.95687 47.7459 5.91174 47.2186 5.91174C45.6669 5.91174 44.8911 6.57372 44.8911 7.89769V9.14644H48.1009V12.667H44.8911V25.4253H39.7494Z" fill="#D8DDEE"/>
<path d="M51.0368 25.4253V12.667H48.6485V9.14644H51.0368V7.85256C51.0368 5.99699 51.5895 4.55767 52.695 3.5346C53.8004 2.51153 55.352 2 57.3499 2C58.0801 2 58.8812 2.10532 59.7534 2.31595L59.7686 6.04714C59.4542 5.95687 59.0334 5.91174 58.506 5.91174C56.9544 5.91174 56.1785 6.57372 56.1785 7.89769V9.14644H59.3883V12.667H56.1785V25.4253H51.0368Z" fill="#D8DDEE"/>
<path d="M67.7702 18.324L70.5084 9.14644H76L69.2914 28.1484L69.0024 28.8405C68.0491 30.9468 66.3656 32 63.952 32C63.2826 32 62.5778 31.8997 61.8375 31.6991V28.0732H62.5068C63.2268 28.0732 63.7745 27.9679 64.1497 27.7573C64.5351 27.5567 64.8191 27.1906 65.0016 26.659L65.4123 25.5757L59.6926 9.14644H65.1689L67.7702 18.324Z" fill="#D8DDEE"/>
</svg>
