<svg width="123" height="32" viewBox="0 0 123 32" fill="none" xmlns="http://www.w3.org/2000/svg">
<path d="M9.25796 3.26861C11.1727 3.26861 12.8023 3.55052 14.1467 4.11435C15.5114 4.67817 16.7743 5.59439 17.9354 6.863L14.9716 10.246C14.2994 9.23912 13.505 8.50413 12.5884 8.04099C11.6921 7.55771 10.6125 7.31607 9.34962 7.31607C8.29041 7.31607 7.47562 7.4973 6.90528 7.85976C6.33493 8.22222 6.04976 8.7055 6.04976 9.3096C6.04976 9.81302 6.34511 10.2258 6.93583 10.548C7.54692 10.8501 8.57558 11.132 10.0218 11.3937C12.8124 11.8972 14.7985 12.6321 15.9799 13.5987C17.1817 14.5653 17.7826 15.9245 17.7826 17.6764C17.7826 18.945 17.416 20.0424 16.6827 20.9687C15.9494 21.895 14.9309 22.5998 13.6272 23.0831C12.3439 23.5663 10.8875 23.808 9.25796 23.808C6.97657 23.808 5.12294 23.5361 3.69707 22.9924C2.2712 22.4286 1.03885 21.5728 0 20.425L2.68878 16.8004C3.48319 17.8878 4.37945 18.653 5.37756 19.096C6.37567 19.539 7.57747 19.7605 8.98297 19.7605C10.1033 19.7605 10.9384 19.6095 11.4884 19.3074C12.0588 18.9853 12.3439 18.5322 12.3439 17.9482C12.3439 17.4851 12.0384 17.1126 11.4273 16.8306C10.8366 16.5286 9.83849 16.2467 8.43299 15.9849C6.70158 15.6426 5.26553 15.2398 4.12483 14.7767C3.00451 14.2934 2.12862 13.649 1.49716 12.8436C0.886075 12.0381 0.580532 11.0111 0.580532 9.76268C0.580532 8.5142 0.91663 7.39662 1.58882 6.40992C2.28139 5.42323 3.2795 4.65804 4.58315 4.11435C5.90717 3.55052 7.46544 3.26861 9.25796 3.26861Z" fill="#D8DDEE"/>
<path d="M28.3408 17.3139L25.8659 20.0324V23.5059H20.6717V2H25.8659V14.7465L31.7018 8.40345H37.446L31.824 14.3236L37.7821 23.5059H32.0379L28.3408 17.3139Z" fill="#D8DDEE"/>
<path d="M49.6393 23.5059C49.069 25.1169 48.4477 26.3955 47.7755 27.342C47.1033 28.2884 46.3089 28.963 45.3923 29.3657C44.4756 29.7886 43.3655 30 42.0618 30C40.3304 30 38.9453 29.6275 37.9065 28.8824L39.0064 25.4391C39.3323 25.7411 39.6888 25.9425 40.0758 26.0432C40.4832 26.164 41.0026 26.2244 41.6341 26.2244C42.2655 26.2244 42.7646 26.1136 43.1312 25.8921C43.4979 25.6908 43.7933 25.3182 44.0173 24.7745L44.384 23.8382L42.6118 19.7303L38.0592 8.40345H43.7729L46.1256 17.0119L46.8589 20.2136L47.6838 16.891L50.0365 8.40345H55.2308L49.6393 23.5059Z" fill="#D8DDEE"/>
<path d="M66.5454 8.1014C67.238 8.1014 67.7879 8.21215 68.1953 8.43366L67.6453 12.7832C67.4417 12.6624 67.1667 12.5617 66.8204 12.4811C66.4741 12.3804 66.1075 12.3301 65.7204 12.3301C64.7427 12.3301 63.9279 12.6422 63.2761 13.2665C62.6243 13.8706 62.2983 14.7465 62.2983 15.8943V23.5059H57.1041V8.40345H61.6873L61.9011 11.6656C62.2678 10.5178 62.8381 9.64185 63.6122 9.03776C64.4066 8.41352 65.3843 8.1014 66.5454 8.1014Z" fill="#D8DDEE"/>
<path d="M77.3869 8.1014C79.9331 8.1014 81.909 8.79612 83.3145 10.1855C84.7403 11.5548 85.4533 13.4779 85.4533 15.9547C85.4533 18.4315 84.7403 20.3646 83.3145 21.754C81.909 23.1233 79.9331 23.808 77.3869 23.808C74.8407 23.808 72.8547 23.1233 71.4288 21.754C70.0233 20.3646 69.3206 18.4315 69.3206 15.9547C69.3206 13.4779 70.0233 11.5548 71.4288 10.1855C72.8547 8.79612 74.8407 8.1014 77.3869 8.1014ZM77.3869 11.7562C76.4092 11.7562 75.6861 12.0885 75.2176 12.753C74.7491 13.4175 74.5148 14.4847 74.5148 15.9547C74.5148 17.4247 74.7491 18.4919 75.2176 19.1564C75.6861 19.8209 76.4092 20.1532 77.3869 20.1532C78.3647 20.1532 79.0878 19.8209 79.5563 19.1564C80.0248 18.4919 80.259 17.4247 80.259 15.9547C80.259 14.4847 80.0248 13.4175 79.5563 12.753C79.0878 12.0885 78.3647 11.7562 77.3869 11.7562Z" fill="#D8DDEE"/>
<path d="M95.7367 8.1014C98.0385 8.1014 99.7699 8.53434 100.931 9.40022C102.092 10.2661 102.815 11.3937 103.1 12.7832L98.2727 14.3538C98.069 12.6221 97.2848 11.7562 95.92 11.7562C93.9035 11.7562 92.8952 13.1758 92.8952 16.0151C92.8952 18.7738 93.9035 20.1532 95.92 20.1532C97.3663 20.1532 98.2116 19.3376 98.456 17.7066L103.131 19.1866C102.907 20.5559 102.163 21.6735 100.9 22.5394C99.6579 23.3851 98.0079 23.808 95.9506 23.808C93.3025 23.808 91.2656 23.1233 89.8397 21.754C88.4139 20.3848 87.7009 18.4516 87.7009 15.9547C87.7009 13.4779 88.4037 11.5548 89.8092 10.1855C91.235 8.79612 93.2109 8.1014 95.7367 8.1014Z" fill="#D8DDEE"/>
<path d="M113.559 17.3139L111.084 20.0324V23.5059H105.89V2H111.084V14.7465L116.92 8.40345H122.664L117.042 14.3236L123 23.5059H117.256L113.559 17.3139Z" fill="#D8DDEE"/>
</svg>
