<svg width="92" height="32" viewBox="0 0 92 32" fill="none" xmlns="http://www.w3.org/2000/svg">
<path d="M0 7.68345H5.23106V4H0V7.68345ZM0 23.7122H5.23106V9.4964H0V23.7122Z" fill="#D8DDEE"/>
<path d="M8.03233 23.7122H13.2634V17.2374C13.2634 14.3885 15.732 13.1799 18.5826 13.1799C22.1092 13.1799 23.1965 14.705 23.1965 16.6331V23.7122H28.4276V15.2518C28.4276 11.7986 26.5761 9.20863 20.963 9.20863C16.4079 9.20863 14.1744 10.9353 13.2634 13.6403H13.2046L13.2634 9.4964H8.03233V23.7122Z" fill="#D8DDEE"/>
<path d="M37.5973 23.7122H43.71L51.8799 9.4964H46.3843L40.9476 19.4245H40.9182L35.4814 9.4964H29.3099L37.5973 23.7122Z" fill="#D8DDEE"/>
<path d="M71.5574 16.4892C71.5574 11.8561 68.648 9.20863 62.2414 9.20863C55.8936 9.20863 52.3083 12.1151 52.3083 16.7482C52.3083 20.3453 54.6594 24 62.5353 24C68.9713 24 71.4105 21.7554 71.5574 19.0216H66.9141C66.7084 20 65.7386 20.777 62.5353 20.777C59.0382 20.777 57.8626 19.4532 57.5981 17.6691H71.5574V16.4892ZM66.9141 15.0216H57.7157C58.1565 13.3525 59.479 12.4317 62.5353 12.4317C65.9149 12.4317 66.9141 13.6115 66.9141 14.9065V15.0216Z" fill="#D8DDEE"/>
<path d="M82.5665 24C90.3543 24 92 21.4676 92 19.1655C92 17.7266 91.3535 16.6043 90.0016 16C88.7967 15.4532 86.8277 15.2806 84.653 15.1655C82.7134 15.0504 81.2146 15.0504 80.2154 14.9065C79.1574 14.7338 78.8342 14.446 78.8342 13.8993C78.8342 13.0072 79.8334 12.4317 82.7134 12.4317C85.6522 12.4317 86.1518 13.2662 86.1812 14.3022H91.1184C91.1184 11.5396 89.5314 9.20863 82.5665 9.20863C76.7476 9.20863 73.6031 11.223 73.6031 14.2158C73.6031 15.4245 74.0733 16.4892 75.1607 17.1223C76.248 17.7554 78.3052 18.0719 81.1558 18.1871C82.7428 18.2734 84.4473 18.2734 85.564 18.4173C86.5044 18.5324 86.7689 18.9065 86.7689 19.3381C86.7689 20.2014 86.0636 20.777 82.5665 20.777C78.9517 20.777 78.5697 19.9137 78.5403 18.9928H73.6031C73.6031 21.1511 74.7786 24 82.5665 24Z" fill="#D8DDEE"/>
</svg>
