<svg width="96" height="32" viewBox="0 0 96 32" xmlns="http://www.w3.org/2000/svg">
<path d="M7.43244 9.15744C9.98556 9.15744 11.9335 9.74211 13.2763 10.9114C14.619 12.0619 15.2904 13.8348 15.2904 16.23V24.7454H10.2692V22.7651C9.49385 24.255 7.98089 25 5.73035 25C4.53889 25 3.50819 24.7925 2.63823 24.3776C1.76828 23.9627 1.10636 23.4063 0.652466 22.7085C0.217489 21.9918 0 21.1808 0 20.2755C0 18.8233 0.557906 17.7011 1.67372 16.909C2.78953 16.098 4.51052 15.6925 6.83671 15.6925H9.90046C9.8059 14.0705 8.71846 13.2595 6.63813 13.2595C5.90056 13.2595 5.15353 13.3821 4.39705 13.6273C3.64057 13.8536 2.99756 14.1743 2.46802 14.5892L0.652466 10.9397C1.50351 10.3739 2.53421 9.94014 3.74459 9.63837C4.97387 9.31775 6.20315 9.15744 7.43244 9.15744ZM7.23386 21.6052C7.85796 21.6052 8.40641 21.4543 8.87921 21.1525C9.35201 20.8508 9.69243 20.4075 9.90046 19.8229V18.4932H7.57428C6.00458 18.4932 5.21973 19.0119 5.21973 20.0492C5.21973 20.5207 5.39939 20.8979 5.75872 21.1808C6.11805 21.4637 6.60976 21.6052 7.23386 21.6052Z" fill="#D8DDEE"/>
<path d="M18.6926 9.41205H24.0825V24.7454H18.6926V9.41205ZM21.3875 7.71464C20.4041 7.71464 19.6098 7.44116 19.0046 6.89422C18.3994 6.34727 18.0968 5.66831 18.0968 4.85732C18.0968 4.04633 18.3994 3.36736 19.0046 2.82042C19.6098 2.27347 20.4041 2 21.3875 2C22.371 2 23.1653 2.26404 23.7705 2.79213C24.3756 3.30135 24.6782 3.96146 24.6782 4.77245C24.6782 5.62116 24.3756 6.32841 23.7705 6.89422C23.1653 7.44116 22.371 7.71464 21.3875 7.71464Z" fill="#D8DDEE"/>
<path d="M32.7199 11.2509C33.2684 10.5531 33.9776 10.0344 34.8475 9.69496C35.7364 9.33661 36.7482 9.15744 37.8829 9.15744V13.9951C37.3912 13.9385 36.9846 13.9102 36.6631 13.9102C35.5094 13.9102 34.6017 14.2214 33.9397 14.8438C33.2967 15.4662 32.9752 16.4186 32.9752 17.7011V24.7454H27.5853V9.41205H32.7199V11.2509Z" fill="#D8DDEE"/>
<path d="M51.1878 24.123C50.7339 24.4059 50.176 24.6228 49.514 24.7737C48.871 24.9246 48.1807 25 47.4432 25C45.4385 25 43.8972 24.5096 42.8192 23.5289C41.7412 22.5482 41.2022 21.0865 41.2022 19.1439V13.9951H38.9611V9.97786H41.2022V5.98893H46.5921V9.97786H50.1098V13.9951H46.5921V19.0873C46.5921 19.6343 46.734 20.0681 47.0176 20.3887C47.3202 20.6904 47.7174 20.8413 48.2091 20.8413C48.8332 20.8413 49.3816 20.681 49.8545 20.3604L51.1878 24.123Z" fill="#D8DDEE"/>
<path d="M60.539 25C58.8937 25 57.4091 24.6605 56.0852 23.9816C54.7614 23.3026 53.7212 22.3596 52.9647 21.1525C52.2272 19.9455 51.8584 18.5781 51.8584 17.0504C51.8584 15.5416 52.2272 14.1837 52.9647 12.9766C53.7212 11.7696 54.7519 10.836 56.0569 10.1759C57.3807 9.49692 58.8748 9.15744 60.539 9.15744C62.2033 9.15744 63.6973 9.49692 65.0212 10.1759C66.345 10.836 67.3757 11.7696 68.1133 12.9766C68.8509 14.1648 69.2197 15.5228 69.2197 17.0504C69.2197 18.5781 68.8509 19.9455 68.1133 21.1525C67.3757 22.3596 66.345 23.3026 65.0212 23.9816C63.6973 24.6605 62.2033 25 60.539 25ZM60.539 20.7282C61.4846 20.7282 62.26 20.4075 62.8652 19.7663C63.4704 19.1062 63.773 18.2009 63.773 17.0504C63.773 15.9188 63.4704 15.0324 62.8652 14.3911C62.26 13.7499 61.4846 13.4293 60.539 13.4293C59.5934 13.4293 58.818 13.7499 58.2128 14.3911C57.6077 15.0324 57.3051 15.9188 57.3051 17.0504C57.3051 18.2009 57.6077 19.1062 58.2128 19.7663C58.818 20.4075 59.5934 20.7282 60.539 20.7282Z" fill="#D8DDEE"/>
<path d="M79.4326 25C77.7873 25 76.3027 24.6605 74.9788 23.9816C73.655 23.3026 72.6148 22.3596 71.8583 21.1525C71.1208 19.9455 70.752 18.5781 70.752 17.0504C70.752 15.5416 71.1208 14.1837 71.8583 12.9766C72.6148 11.7696 73.6455 10.836 74.9504 10.1759C76.2743 9.49692 77.7683 9.15744 79.4326 9.15744C81.0969 9.15744 82.5909 9.49692 83.9148 10.1759C85.2386 10.836 86.2693 11.7696 87.0069 12.9766C87.7444 14.1648 88.1132 15.5228 88.1132 17.0504C88.1132 18.5781 87.7444 19.9455 87.0069 21.1525C86.2693 22.3596 85.2386 23.3026 83.9148 23.9816C82.5909 24.6605 81.0969 25 79.4326 25ZM79.4326 20.7282C80.3782 20.7282 81.1536 20.4075 81.7588 19.7663C82.364 19.1062 82.6666 18.2009 82.6666 17.0504C82.6666 15.9188 82.364 15.0324 81.7588 14.3911C81.1536 13.7499 80.3782 13.4293 79.4326 13.4293C78.487 13.4293 77.7116 13.7499 77.1064 14.3911C76.5012 15.0324 76.1986 15.9188 76.1986 17.0504C76.1986 18.2009 76.5012 19.1062 77.1064 19.7663C77.7116 20.4075 78.487 20.7282 79.4326 20.7282Z" fill="#D8DDEE"/>
<path d="M90.6101 3.754H96V24.7454H90.6101V3.754Z" fill="#D8DDEE"/>
</svg>
