<svg width="128" height="32" viewBox="0 0 128 32" fill="none" xmlns="http://www.w3.org/2000/svg">
<path d="M0.767534 23.7222C0.559068 23.7222 0.379029 23.6481 0.227417 23.5C0.0758058 23.3519 0 23.1759 0 22.9722V5.02778C0 4.82407 0.0758058 4.64815 0.227417 4.5C0.379029 4.35185 0.559068 4.27778 0.767534 4.27778H6.56668C6.77514 4.27778 6.95518 4.35185 7.10679 4.5C7.2584 4.64815 7.33421 4.82407 7.33421 5.02778V22.9722C7.33421 23.1759 7.2584 23.3519 7.10679 23.5C6.95518 23.6481 6.77514 23.7222 6.56668 23.7222H0.767534Z" fill="#D8DDEE"/>
<path d="M11.2334 23.7222C11.0249 23.7222 10.8449 23.6481 10.6933 23.5C10.5417 23.3519 10.4659 23.1759 10.4659 22.9722V5.02778C10.4659 4.82407 10.5417 4.64815 10.6933 4.5C10.8449 4.35185 11.0249 4.27778 11.2334 4.27778H15.7249C16.2555 4.27778 16.644 4.49074 16.8904 4.91667L21.6946 12.6111V5.02778C21.6946 4.82407 21.7704 4.64815 21.922 4.5C22.0736 4.35185 22.2537 4.27778 22.4621 4.27778H27.6074C27.8159 4.27778 27.996 4.35185 28.1476 4.5C28.2992 4.64815 28.375 4.82407 28.375 5.02778V22.9722C28.375 23.1759 28.2992 23.3519 28.1476 23.5C27.996 23.6481 27.8159 23.7222 27.6074 23.7222H23.116C22.7938 23.7222 22.5474 23.6574 22.3768 23.5278C22.2063 23.3982 22.0641 23.25 21.9504 23.0833L17.1462 16V22.9722C17.1462 23.1759 17.0704 23.3519 16.9188 23.5C16.7672 23.6481 16.5872 23.7222 16.3787 23.7222H11.2334Z" fill="#D8DDEE"/>
<path d="M39.8094 24C37.8005 24 36.0949 23.7315 34.6925 23.1944C33.309 22.6574 32.2667 21.9444 31.5655 21.0556C30.8643 20.1481 30.4947 19.1574 30.4568 18.0833C30.4568 17.9167 30.5137 17.7778 30.6274 17.6667C30.76 17.537 30.9117 17.4722 31.0822 17.4722H36.4834C36.7487 17.4722 36.9572 17.5093 37.1088 17.5833C37.2793 17.6389 37.4783 17.7593 37.7058 17.9444C38.2553 18.3704 38.9565 18.5833 39.8094 18.5833C40.4537 18.5833 40.9654 18.5185 41.3444 18.3889C41.7424 18.2407 41.9414 18.0463 41.9414 17.8056C41.9414 17.4722 41.6856 17.2222 41.1739 17.0556C40.6622 16.8704 39.6957 16.6852 38.2743 16.5C33.3848 15.8704 30.9401 13.8333 30.9401 10.3889C30.9401 9.14815 31.3002 8.0463 32.0203 7.08333C32.7594 6.10185 33.7828 5.34259 35.0905 4.80555C36.3981 4.26852 37.9047 4 39.6104 4C41.3918 4 42.9553 4.2963 44.3009 4.88889C45.6464 5.48148 46.6793 6.23148 47.3994 7.13889C48.1196 8.02778 48.4986 8.89815 48.5365 9.75C48.5365 9.91667 48.4702 10.0648 48.3375 10.1944C48.2238 10.3056 48.0911 10.3611 47.9395 10.3611H42.2541C41.9888 10.3611 41.7803 10.3333 41.6287 10.2778C41.4771 10.2037 41.3065 10.0833 41.117 9.91667C40.719 9.58333 40.2168 9.41667 39.6104 9.41667C38.7007 9.41667 38.2459 9.67593 38.2459 10.1944C38.2459 10.4722 38.4638 10.7037 38.8997 10.8889C39.3545 11.0741 40.1884 11.2407 41.4013 11.3889C43.2964 11.6296 44.8125 11.9907 45.9496 12.4722C47.1057 12.9537 47.9395 13.6019 48.4512 14.4167C48.9819 15.213 49.2472 16.2222 49.2472 17.4444C49.2472 18.7593 48.8397 19.9167 48.0248 20.9167C47.2099 21.8981 46.0823 22.6574 44.642 23.1944C43.2206 23.7315 41.6098 24 39.8094 24Z" fill="#D8DDEE"/>
<path d="M52.0975 23.7222C51.889 23.7222 51.709 23.6481 51.5573 23.5C51.4057 23.3519 51.3299 23.1759 51.3299 22.9722V5.02778C51.3299 4.82407 51.4057 4.64815 51.5573 4.5C51.709 4.35185 51.889 4.27778 52.0975 4.27778H60.7109C63.3641 4.27778 65.4487 4.85185 66.9649 6C68.4999 7.14815 69.2675 8.84259 69.2675 11.0833C69.2675 13.3056 68.5094 14.963 66.9933 16.0556C65.4772 17.1296 63.383 17.6667 60.7109 17.6667H58.721V22.9722C58.721 23.1759 58.6452 23.3519 58.4936 23.5C58.342 23.6481 58.1619 23.7222 57.9534 23.7222H52.0975ZM60.5687 12.5278C60.9099 12.5278 61.2131 12.4074 61.4784 12.1667C61.7437 11.9074 61.8764 11.5278 61.8764 11.0278C61.8764 10.6019 61.7722 10.2315 61.5637 9.91667C61.3552 9.60185 61.0236 9.44445 60.5687 9.44445H58.5788V12.5278H60.5687Z" fill="#D8DDEE"/>
<path d="M68.8806 23.7222C68.71 23.7222 68.5584 23.6667 68.4258 23.5556C68.312 23.4259 68.2552 23.2778 68.2552 23.1111C68.2552 23.037 68.2647 22.9722 68.2836 22.9167L74.6229 5.19444C74.6987 4.9537 74.8408 4.74074 75.0493 4.55556C75.2578 4.37037 75.542 4.27778 75.9021 4.27778H82.0708C82.4309 4.27778 82.7151 4.37037 82.9236 4.55556C83.1321 4.74074 83.2742 4.9537 83.35 5.19444L89.6893 22.9167C89.7082 22.9722 89.7177 23.037 89.7177 23.1111C89.7177 23.2778 89.6514 23.4259 89.5187 23.5556C89.405 23.6667 89.2629 23.7222 89.0923 23.7222H83.8333C83.2647 23.7222 82.8952 23.4907 82.7246 23.0278L82.0424 21.1944H75.9305L75.2483 23.0278C75.0777 23.4907 74.7082 23.7222 74.1396 23.7222H68.8806ZM77.3803 15.7778H80.5926L78.9722 10.6111L77.3803 15.7778Z" fill="#D8DDEE"/>
<path d="M99.8173 24C96.9557 24 94.6815 23.3889 92.9948 22.1667C91.3081 20.9259 90.408 19.0278 90.2942 16.4722C90.2753 15.9722 90.2658 15.1574 90.2658 14.0278C90.2658 12.8796 90.2753 12.0463 90.2942 11.5278C90.408 9.0463 91.3271 7.17593 93.0517 5.91667C94.7763 4.63889 97.0315 4 99.8173 4C101.523 4 103.086 4.25 104.508 4.75C105.948 5.25 107.114 6.03704 108.004 7.11111C108.914 8.16667 109.378 9.5 109.397 11.1111C109.397 11.2778 109.331 11.4259 109.198 11.5556C109.085 11.6667 108.942 11.7222 108.772 11.7222H102.973C102.67 11.7222 102.442 11.6667 102.291 11.5556C102.158 11.4444 102.035 11.2315 101.921 10.9167C101.712 10.3611 101.438 9.97222 101.097 9.75C100.755 9.52778 100.32 9.41667 99.7889 9.41667C99.1256 9.41667 98.6139 9.59259 98.2538 9.94444C97.8938 10.2778 97.7043 10.8519 97.6853 11.6667C97.6664 12.1667 97.6569 12.9352 97.6569 13.9722C97.6569 15.0093 97.6664 15.7963 97.6853 16.3333C97.7043 17.1482 97.8938 17.7315 98.2538 18.0833C98.6139 18.4167 99.1256 18.5833 99.7889 18.5833C100.869 18.5833 101.58 18.0833 101.921 17.0833C102.016 16.7685 102.129 16.5556 102.262 16.4444C102.414 16.3333 102.651 16.2778 102.973 16.2778H108.772C108.942 16.2778 109.085 16.3426 109.198 16.4722C109.331 16.5833 109.397 16.7222 109.397 16.8889C109.378 18.5 108.914 19.8426 108.004 20.9167C107.114 21.9722 105.948 22.75 104.508 23.25C103.086 23.75 101.523 24 99.8173 24Z" fill="#D8DDEE"/>
<path d="M112.422 23.7222C112.213 23.7222 112.033 23.6481 111.882 23.5C111.73 23.3519 111.654 23.1759 111.654 22.9722V5.02778C111.654 4.82407 111.73 4.64815 111.882 4.5C112.033 4.35185 112.213 4.27778 112.422 4.27778H127.005C127.214 4.27778 127.394 4.35185 127.545 4.5C127.697 4.64815 127.773 4.82407 127.773 5.02778V8.94445C127.773 9.14815 127.697 9.32407 127.545 9.47222C127.394 9.62037 127.214 9.69445 127.005 9.69445H118.477V11.4444H126.38C126.588 11.4444 126.768 11.5185 126.92 11.6667C127.071 11.8148 127.147 11.9907 127.147 12.1944V15.8056C127.147 16.0093 127.071 16.1852 126.92 16.3333C126.768 16.4815 126.588 16.5556 126.38 16.5556H118.477V18.3056H127.232C127.441 18.3056 127.621 18.3796 127.773 18.5278C127.924 18.6759 128 18.8519 128 19.0556V22.9722C128 23.1759 127.924 23.3519 127.773 23.5C127.621 23.6481 127.441 23.7222 127.232 23.7222H112.422Z" fill="#D8DDEE"/>
</svg>
